<svg width="16" height="18" viewBox="0 0 16 18" fill="none" xmlns="http://www.w3.org/2000/svg">
<path d="M9.46584 9.00093L15.6959 2.55937C16.1014 2.14038 16.1014 1.46292 15.6959 1.04392C15.2907 0.624926 14.6354 0.624926 14.2302 1.04392L7.99991 7.48548L1.76983 1.04392C1.36438 0.624926 0.709335 0.624926 0.304082 1.04392C-0.101361 1.46292 -0.101361 2.14038 0.304082 2.55937L6.53416 9.00093L0.304082 15.4425C-0.101361 15.8615 -0.101361 16.5389 0.304082 16.9579C0.506044 17.1669 0.771594 17.2719 1.03695 17.2719C1.30231 17.2719 1.56767 17.1669 1.76983 16.9579L7.99991 10.5164L14.2302 16.9579C14.4323 17.1669 14.6977 17.2719 14.963 17.2719C15.2284 17.2719 15.4938 17.1669 15.6959 16.9579C16.1014 16.5389 16.1014 15.8615 15.6959 15.4425L9.46584 9.00093Z" fill="black"/>
</svg>
