<svg width="14" height="14" viewBox="0 0 14 14" fill="none" xmlns="http://www.w3.org/2000/svg">
<path d="M6.80292 0.85022C3.05179 0.85022 0 3.76616 0 7.35026C0 10.9344 3.05179 13.8502 6.80292 13.8502C10.554 13.8502 13.6058 10.9344 13.6058 7.35026C13.6058 3.76616 10.554 0.85022 6.80292 0.85022ZM6.80292 12.6684C3.73377 12.6684 1.23689 10.2827 1.23689 7.35026C1.23689 4.41781 3.73377 2.03204 6.80292 2.03204C9.87206 2.03204 12.3689 4.41781 12.3689 7.35026C12.3689 10.2827 9.87202 12.6684 6.80292 12.6684Z" fill="#3D3A3A"/>
<path d="M6.80295 3.60767C6.34835 3.60767 5.97852 3.96107 5.97852 4.39546C5.97852 4.82946 6.34835 5.18255 6.80295 5.18255C7.25754 5.18255 7.62737 4.82946 7.62737 4.39546C7.62737 3.96107 7.25754 3.60767 6.80295 3.60767Z" fill="#3D3A3A"/>
<path d="M6.80302 6.36536C6.46147 6.36536 6.18457 6.62993 6.18457 6.95627V10.5018C6.18457 10.8281 6.46147 11.0927 6.80302 11.0927C7.14457 11.0927 7.42147 10.8281 7.42147 10.5018V6.95627C7.42147 6.62993 7.14457 6.36536 6.80302 6.36536Z" fill="#3D3A3A"/>
</svg>
