<svg version="1.1" xmlns="http://www.w3.org/2000/svg" xmlns:xlink="http://www.w3.org/1999/xlink" x="0px" y="0px"
	 viewBox="0 0 15.8 16" style="enable-background:new 0 0 15.8 16;" xml:space="preserve">
<style type="text/css">
	.st0{fill:#2A2B2E;}
</style>
<path class="st0" d="M15.6,5.7c-0.1-0.1,0.2,0.2-4-3.9c-0.4-0.4-1.2-0.4-1.6,0c-0.4,0.4-0.4,1.1,0,1.5l2,2H1.1C0.5,5.3,0,5.8,0,6.4
	v7.1c0,0.6,0.5,1.1,1.1,1.1s1.1-0.5,1.1-1.1v-6h9.7l-2,2c-0.7,0.7-0.2,1.9,0.8,1.9c0.3,0,0.6-0.1,0.8-0.3l3.7-3.6
	C15.9,7,15.9,6.2,15.6,5.7z"/>
</svg>
